<svg width="25" height="25" viewBox="0 0 25 25" fill="none" xmlns="http://www.w3.org/2000/svg">
<g clip-path="url(#clip0_30_150)">
<path d="M7.29163 18.75C6.14579 18.75 5.21871 19.6875 5.21871 20.8334C5.21871 21.9792 6.14579 22.9167 7.29163 22.9167C8.43746 22.9167 9.37496 21.9792 9.37496 20.8334C9.37496 19.6875 8.43746 18.75 7.29163 18.75ZM1.04163 2.08337V4.16671H3.12496L6.87496 12.073L5.46871 14.625C5.30204 14.9167 5.20829 15.2605 5.20829 15.625C5.20829 16.7709 6.14579 17.7084 7.29163 17.7084H19.7916V15.625H7.72913C7.58329 15.625 7.46871 15.5105 7.46871 15.3646L7.49996 15.2396L8.43746 13.5417H16.1979C16.9791 13.5417 17.6666 13.1146 18.0208 12.4688L21.75 5.70837C21.8333 5.56254 21.875 5.38546 21.875 5.20837C21.875 4.63546 21.4062 4.16671 20.8333 4.16671H5.42704L4.44788 2.08337H1.04163ZM17.7083 18.75C16.5625 18.75 15.6354 19.6875 15.6354 20.8334C15.6354 21.9792 16.5625 22.9167 17.7083 22.9167C18.8541 22.9167 19.7916 21.9792 19.7916 20.8334C19.7916 19.6875 18.8541 18.75 17.7083 18.75Z" fill="#EEF1F4"/>
</g>
<defs>
<clipPath id="clip0_30_150">
<rect width="25" height="25" fill="white"/>
</clipPath>
</defs>
</svg>
